<svg xmlns="http://www.w3.org/2000/svg" viewBox="0 0 64 64"><title>map</title><g id="map"><path d="M15.65,38.06,23,35.3V9.44L9,14.69V54.56l14-5.25V37.45l-6.65,2.49A1,1,0,0,1,16,40a1,1,0,0,1-.35-1.94ZM15,36V31a.88.88,0,0,1,0-.17,3,3,0,1,1,2,0A.88.88,0,0,1,17,31v5a1,1,0,0,1-2,0Z"/><path d="M41,14.69V40.55l6.65-2.49a1,1,0,0,1,.7,1.88L41,42.7V54.56l14-5.25V9.44Zm7,21.45s-5-2.27-5-7.21a5,5,0,0,1,10,0C53,33.87,48,36.14,48,36.14Z"/><polygon points="39 42.7 39 54.56 25 49.31 25 37.45 39 42.7"/><polygon points="39 14.69 39 40.55 25 35.3 25 9.44 39 14.69"/><path d="M50,29a2,2,0,1,1-2-2A2,2,0,0,1,50,29Z"/><path d="M48,27a2,2,0,1,0,2,2A2,2,0,0,0,48,27Z"/></g></svg>